<svg width="163" height="112" viewBox="0 0 163 112" fill="none" xmlns="http://www.w3.org/2000/svg">
<g style="mix-blend-mode:multiply">
<path opacity="0.03" d="M140.655 50.0481C112.575 33.8381 83.5953 33.8381 55.5053 50.0481C41.4653 58.1581 34.4453 66.3882 34.4453 74.6282C34.4453 82.8682 41.4653 91.0981 55.5053 99.2081C83.5853 115.418 112.565 115.418 140.655 99.2081C154.695 91.0981 161.715 82.8682 161.715 74.6282C161.715 66.3882 154.695 58.1581 140.655 50.0481Z" fill="#FCFCFC"/>
<path opacity="0.06" d="M139.585 50.0481C111.505 33.8381 82.5251 33.8381 54.4351 50.0481C40.3951 58.1581 33.375 66.3882 33.375 74.6282C33.375 82.8682 40.3951 91.0981 54.4351 99.2081C82.5151 115.418 111.495 115.418 139.585 99.2081C153.625 91.0981 160.645 82.8682 160.645 74.6282C160.645 66.3882 153.625 58.1581 139.585 50.0481Z" fill="#F9F9F9"/>
<path opacity="0.09" d="M138.515 50.0481C110.435 33.8381 81.4552 33.8381 53.3652 50.0481C39.3252 58.1581 32.3052 66.3882 32.3052 74.6282C32.3052 82.8682 39.3252 91.0981 53.3652 99.2081C81.4452 115.418 110.425 115.418 138.515 99.2081C152.555 91.0981 159.575 82.8682 159.575 74.6282C159.575 66.3882 152.555 58.1581 138.515 50.0481Z" fill="#F5F5F5"/>
<path opacity="0.12" d="M137.445 50.0481C109.365 33.8381 80.3853 33.8381 52.2953 50.0481C38.2553 58.1581 31.2354 66.3882 31.2354 74.6282C31.2354 82.8682 38.2553 91.0981 52.2953 99.2081C80.3754 115.418 109.355 115.418 137.445 99.2081C151.485 91.0981 158.505 82.8682 158.505 74.6282C158.505 66.3882 151.485 58.1581 137.445 50.0481Z" fill="#F2F2F2"/>
<path opacity="0.15" d="M136.375 50.0481C108.295 33.8381 79.315 33.8381 51.225 50.0481C37.185 58.1581 30.165 66.3882 30.165 74.6282C30.165 82.8682 37.185 91.0981 51.225 99.2081C79.305 115.418 108.285 115.418 136.375 99.2081C150.415 91.0981 157.435 82.8682 157.435 74.6282C157.435 66.3882 150.415 58.1581 136.375 50.0481Z" fill="#EFEFEF"/>
<path opacity="0.18" d="M135.305 50.0481C107.225 33.8381 78.2452 33.8381 50.1552 50.0481C36.1152 58.1581 29.0952 66.3882 29.0952 74.6282C29.0952 82.8682 36.1152 91.0981 50.1552 99.2081C78.2352 115.418 107.215 115.418 135.305 99.2081C149.345 91.0981 156.365 82.8682 156.365 74.6282C156.365 66.3882 149.345 58.1581 135.305 50.0481Z" fill="#ECECEC"/>
<path opacity="0.21" d="M134.235 50.0481C106.155 33.8381 77.1749 33.8381 49.0849 50.0481C35.0449 58.1581 28.0249 66.3882 28.0249 74.6282C28.0249 82.8682 35.0449 91.0981 49.0849 99.2081C77.1649 115.418 106.145 115.418 134.235 99.2081C148.275 91.0981 155.295 82.8682 155.295 74.6282C155.295 66.3882 148.275 58.1581 134.235 50.0481Z" fill="#E8E8E8"/>
<path opacity="0.24" d="M133.165 50.0481C105.085 33.8381 76.1051 33.8381 48.0151 50.0481C33.9751 58.1581 26.9551 66.3882 26.9551 74.6282C26.9551 82.8682 33.9751 91.0981 48.0151 99.2081C76.0951 115.418 105.075 115.418 133.165 99.2081C147.205 91.0981 154.225 82.8682 154.225 74.6282C154.225 66.3882 147.205 58.1581 133.165 50.0481Z" fill="#E5E5E5"/>
<path opacity="0.27" d="M132.095 50.0481C104.015 33.8381 75.0353 33.8381 46.9453 50.0481C32.9053 58.1581 25.8853 66.3882 25.8853 74.6282C25.8853 82.8682 32.9053 91.0981 46.9453 99.2081C75.0253 115.418 104.005 115.418 132.095 99.2081C146.135 91.0981 153.155 82.8682 153.155 74.6282C153.155 66.3882 146.135 58.1581 132.095 50.0481Z" fill="#E2E2E2"/>
<path opacity="0.3" d="M131.025 50.0481C102.945 33.8381 73.9649 33.8381 45.8749 50.0481C31.8349 58.1581 24.8149 66.3882 24.8149 74.6282C24.8149 82.8682 31.8349 91.0981 45.8749 99.2081C73.9549 115.418 102.935 115.418 131.025 99.2081C145.065 91.0981 152.085 82.8682 152.085 74.6282C152.085 66.3882 145.065 58.1581 131.025 50.0481Z" fill="#DFDFDF"/>
<path opacity="0.33" d="M129.955 50.0481C101.875 33.8381 72.8951 33.8381 44.8051 50.0481C30.7651 58.1581 23.7451 66.3882 23.7451 74.6282C23.7451 82.8682 30.7651 91.0981 44.8051 99.2081C72.8851 115.418 101.865 115.418 129.955 99.2081C143.995 91.0981 151.015 82.8682 151.015 74.6282C151.015 66.3882 143.995 58.1581 129.955 50.0481Z" fill="#DBDBDB"/>
<path opacity="0.36" d="M128.885 50.0481C100.805 33.8381 71.8253 33.8381 43.7353 50.0481C29.6953 58.1581 22.6753 66.3882 22.6753 74.6282C22.6753 82.8682 29.6953 91.0981 43.7353 99.2081C71.8153 115.418 100.795 115.418 128.885 99.2081C142.925 91.0981 149.945 82.8682 149.945 74.6282C149.945 66.3882 142.925 58.1581 128.885 50.0481Z" fill="#D8D8D8"/>
<path opacity="0.39" d="M127.815 50.0481C99.7349 33.8381 70.755 33.8381 42.665 50.0481C28.625 58.1581 21.605 66.3882 21.605 74.6282C21.605 82.8682 28.625 91.0981 42.665 99.2081C70.745 115.418 99.7249 115.418 127.815 99.2081C141.855 91.0981 148.875 82.8682 148.875 74.6282C148.875 66.3882 141.855 58.1581 127.815 50.0481Z" fill="#D5D5D5"/>
<path opacity="0.42" d="M126.745 50.0481C98.6652 33.8381 69.6852 33.8381 41.5952 50.0481C27.5552 58.1581 20.5352 66.3882 20.5352 74.6282C20.5352 82.8682 27.5552 91.0981 41.5952 99.2081C69.6752 115.418 98.6552 115.418 126.745 99.2081C140.785 91.0981 147.805 82.8682 147.805 74.6282C147.805 66.3882 140.785 58.1581 126.745 50.0481Z" fill="#D2D2D2"/>
<path opacity="0.45" d="M125.685 50.0481C97.6051 33.8381 68.6251 33.8381 40.5351 50.0481C26.4951 58.1581 19.4751 66.3882 19.4751 74.6282C19.4751 82.8682 26.4951 91.0981 40.5351 99.2081C68.6151 115.418 97.5951 115.418 125.685 99.2081C139.725 91.0981 146.745 82.8682 146.745 74.6282C146.745 66.3882 139.725 58.1581 125.685 50.0481Z" fill="#CECECE"/>
<path opacity="0.48" d="M124.615 50.0481C96.5353 33.8381 67.5553 33.8381 39.4653 50.0481C25.4253 58.1581 18.4053 66.3882 18.4053 74.6282C18.4053 82.8682 25.4253 91.0981 39.4653 99.2081C67.5453 115.418 96.5253 115.418 124.615 99.2081C138.655 91.0981 145.675 82.8682 145.675 74.6282C145.675 66.3882 138.655 58.1581 124.615 50.0481Z" fill="#CBCBCB"/>
<path opacity="0.52" d="M123.545 50.0481C95.465 33.8381 66.485 33.8381 38.395 50.0481C24.355 58.1581 17.335 66.3882 17.335 74.6282C17.335 82.8682 24.355 91.0981 38.395 99.2081C66.475 115.418 95.455 115.418 123.545 99.2081C137.585 91.0981 144.605 82.8682 144.605 74.6282C144.605 66.3882 137.585 58.1581 123.545 50.0481Z" fill="#C8C8C8"/>
<path opacity="0.55" d="M122.475 50.0481C94.3952 33.8381 65.4151 33.8381 37.3251 50.0481C23.2851 58.1581 16.2651 66.3882 16.2651 74.6282C16.2651 82.8682 23.2851 91.0981 37.3251 99.2081C65.4051 115.418 94.3852 115.418 122.475 99.2081C136.515 91.0981 143.535 82.8682 143.535 74.6282C143.535 66.3882 136.515 58.1581 122.475 50.0481Z" fill="#C5C5C5"/>
<path opacity="0.58" d="M121.405 50.0481C93.3253 33.8381 64.3453 33.8381 36.2553 50.0481C22.2153 58.1581 15.1953 66.3882 15.1953 74.6282C15.1953 82.8682 22.2153 91.0981 36.2553 99.2081C64.3353 115.418 93.3153 115.418 121.405 99.2081C135.445 91.0981 142.465 82.8682 142.465 74.6282C142.465 66.3882 135.445 58.1581 121.405 50.0481Z" fill="#C1C1C1"/>
<path opacity="0.61" d="M120.335 50.0481C92.255 33.8381 63.2751 33.8381 35.1851 50.0481C21.1451 58.1581 14.125 66.3882 14.125 74.6282C14.125 82.8682 21.1451 91.0981 35.1851 99.2081C63.2651 115.418 92.245 115.418 120.335 99.2081C134.375 91.0981 141.395 82.8682 141.395 74.6282C141.395 66.3882 134.375 58.1581 120.335 50.0481Z" fill="#BEBEBE"/>
<path opacity="0.64" d="M119.265 50.0481C91.1851 33.8381 62.2052 33.8381 34.1152 50.0481C20.0752 58.1581 13.0552 66.3882 13.0552 74.6282C13.0552 82.8682 20.0752 91.0981 34.1152 99.2081C62.1952 115.418 91.1751 115.418 119.265 99.2081C133.305 91.0981 140.325 82.8682 140.325 74.6282C140.325 66.3882 133.305 58.1581 119.265 50.0481Z" fill="#BBBBBB"/>
<path opacity="0.67" d="M118.195 50.0481C90.1153 33.8381 61.1353 33.8381 33.0453 50.0481C19.0053 58.1581 11.9854 66.3882 11.9854 74.6282C11.9854 82.8682 19.0053 91.0981 33.0453 99.2081C61.1254 115.418 90.1053 115.418 118.195 99.2081C132.235 91.0981 139.255 82.8682 139.255 74.6282C139.255 66.3882 132.235 58.1581 118.195 50.0481Z" fill="#B8B8B8"/>
<path opacity="0.7" d="M117.125 50.0481C89.045 33.8381 60.065 33.8381 31.975 50.0481C17.935 58.1581 10.915 66.3882 10.915 74.6282C10.915 82.8682 17.935 91.0981 31.975 99.2081C60.055 115.418 89.035 115.418 117.125 99.2081C131.165 91.0981 138.185 82.8682 138.185 74.6282C138.185 66.3882 131.165 58.1581 117.125 50.0481Z" fill="#B4B4B4"/>
<path opacity="0.73" d="M116.055 50.0481C87.9752 33.8381 58.9952 33.8381 30.9052 50.0481C16.8652 58.1581 9.84521 66.3882 9.84521 74.6282C9.84521 82.8682 16.8652 91.0981 30.9052 99.2081C58.9852 115.418 87.9652 115.418 116.055 99.2081C130.095 91.0981 137.115 82.8682 137.115 74.6282C137.115 66.3882 130.095 58.1581 116.055 50.0481Z" fill="#B1B1B1"/>
<path opacity="0.76" d="M114.985 50.0481C86.9049 33.8381 57.9249 33.8381 29.8349 50.0481C15.7949 58.1581 8.7749 66.3882 8.7749 74.6282C8.7749 82.8682 15.7949 91.0981 29.8349 99.2081C57.9149 115.418 86.8949 115.418 114.985 99.2081C129.025 91.0981 136.045 82.8682 136.045 74.6282C136.045 66.3882 129.025 58.1581 114.985 50.0481Z" fill="#AEAEAE"/>
<path opacity="0.79" d="M113.915 50.0481C85.8351 33.8381 56.8551 33.8381 28.7651 50.0481C14.7251 58.1581 7.70508 66.3882 7.70508 74.6282C7.70508 82.8682 14.7251 91.0981 28.7651 99.2081C56.8451 115.418 85.8251 115.418 113.915 99.2081C127.955 91.0981 134.975 82.8682 134.975 74.6282C134.975 66.3882 127.955 58.1581 113.915 50.0481Z" fill="#ABABAB"/>
<path opacity="0.82" d="M112.845 50.0481C84.7653 33.8381 55.7853 33.8381 27.6953 50.0481C13.6553 58.1581 6.63525 66.3882 6.63525 74.6282C6.63525 82.8682 13.6553 91.0981 27.6953 99.2081C55.7753 115.418 84.7553 115.418 112.845 99.2081C126.885 91.0981 133.905 82.8682 133.905 74.6282C133.905 66.3882 126.885 58.1581 112.845 50.0481Z" fill="#A7A7A7"/>
<path opacity="0.85" d="M111.775 50.0481C83.695 33.8381 54.7149 33.8381 26.6249 50.0481C12.5849 58.1581 5.56494 66.3882 5.56494 74.6282C5.56494 82.8682 12.5849 91.0981 26.6249 99.2081C54.7049 115.418 83.685 115.418 111.775 99.2081C125.815 91.0981 132.835 82.8682 132.835 74.6282C132.835 66.3882 125.815 58.1581 111.775 50.0481Z" fill="#A4A4A4"/>
<path opacity="0.88" d="M110.715 50.0481C82.6349 33.8381 53.6549 33.8381 25.5649 50.0481C11.5249 58.1581 4.50488 66.3882 4.50488 74.6282C4.50488 82.8682 11.5249 91.0981 25.5649 99.2081C53.6449 115.418 82.6249 115.418 110.715 99.2081C124.755 91.0981 131.775 82.8682 131.775 74.6282C131.775 66.3882 124.755 58.1581 110.715 50.0481Z" fill="#A1A1A1"/>
<path opacity="0.91" d="M109.645 50.0481C81.565 33.8381 52.5851 33.8381 24.4951 50.0481C10.4551 58.1581 3.43506 66.3882 3.43506 74.6282C3.43506 82.8682 10.4551 91.0981 24.4951 99.2081C52.5751 115.418 81.555 115.418 109.645 99.2081C123.685 91.0981 130.705 82.8682 130.705 74.6282C130.705 66.3882 123.685 58.1581 109.645 50.0481Z" fill="#9E9E9E"/>
<path opacity="0.94" d="M108.575 50.0481C80.4952 33.8381 51.5152 33.8381 23.4252 50.0481C9.38523 58.1581 2.36523 66.3882 2.36523 74.6282C2.36523 82.8682 9.38523 91.0981 23.4252 99.2081C51.5052 115.418 80.4852 115.418 108.575 99.2081C122.615 91.0981 129.635 82.8682 129.635 74.6282C129.635 66.3882 122.615 58.1581 108.575 50.0481Z" fill="#9A9A9A"/>
<path opacity="0.97" d="M107.505 50.0481C79.4249 33.8381 50.4449 33.8381 22.3549 50.0481C8.31492 58.1581 1.29492 66.3882 1.29492 74.6282C1.29492 82.8682 8.31492 91.0981 22.3549 99.2081C50.4349 115.418 79.4149 115.418 107.505 99.2081C121.545 91.0981 128.565 82.8682 128.565 74.6282C128.565 66.3882 121.545 58.1581 107.505 50.0481Z" fill="#979797"/>
<path d="M106.435 50.0481C78.3551 33.8381 49.3751 33.8381 21.2851 50.0481C7.2451 58.1581 0.225098 66.3882 0.225098 74.6282C0.225098 82.8682 7.2451 91.0981 21.2851 99.2081C49.3651 115.418 78.3451 115.418 106.435 99.2081C120.475 91.0981 127.495 82.8682 127.495 74.6282C127.495 66.3882 120.475 58.1581 106.435 50.0481Z" fill="#949494"/>
</g>
<path d="M106.435 50.0481C78.3551 33.8381 49.3751 33.8381 21.2851 50.0481C7.2451 58.1581 0.225098 66.3882 0.225098 74.6282C0.225098 82.8682 7.2451 91.0981 21.2851 99.2081C49.3651 115.418 78.3451 115.418 106.435 99.2081C120.475 91.0981 127.495 82.8682 127.495 74.6282C127.495 66.3882 120.475 58.1581 106.435 50.0481Z" fill="#2E2E2E"/>
<path d="M106.435 86.9382C78.3551 103.148 49.3751 103.148 21.2851 86.9382C7.2451 78.8282 0.225098 70.5981 0.225098 62.3581V74.6282C0.225098 82.8682 7.2451 91.0981 21.2851 99.2081C49.3651 115.418 78.3451 115.418 106.435 99.2081C120.475 91.0981 127.495 82.8682 127.495 74.6282V62.3581C127.495 70.5981 120.475 78.8282 106.435 86.9382Z" fill="url(#paint0_linear_3026_15663)"/>
<path d="M106.435 37.7782C78.3551 21.5682 49.3751 21.5682 21.2851 37.7782C7.2451 45.8881 0.225098 54.1181 0.225098 62.3581C0.225098 70.5981 7.2451 78.8282 21.2851 86.9382C49.3651 103.148 78.3451 103.148 106.435 86.9382C120.475 78.8282 127.495 70.5981 127.495 62.3581C127.495 54.1181 120.475 45.8881 106.435 37.7782Z" fill="#37384F"/>
<mask id="mask0_3026_15663" style="mask-type:luminance" maskUnits="userSpaceOnUse" x="0" y="25" width="128" height="75">
<path d="M106.435 37.7782C78.3551 21.5682 49.3751 21.5682 21.2851 37.7782C7.2451 45.8881 0.225098 54.1181 0.225098 62.3581C0.225098 70.5981 7.2451 78.8282 21.2851 86.9382C49.3651 103.148 78.3451 103.148 106.435 86.9382C120.475 78.8282 127.495 70.5981 127.495 62.3581C127.495 54.1181 120.475 45.8881 106.435 37.7782Z" fill="white"/>
</mask>
<g mask="url(#mask0_3026_15663)">
<g style="mix-blend-mode:multiply">
<path opacity="0.03" d="M142.545 28.4781L95.5551 1.34815C94.1051 0.508145 92.7851 0.438144 91.8251 0.988144L87.9551 3.22815C86.9951 3.77815 86.4051 4.95815 86.4051 6.63815V10.6381L83.5551 12.2882C84.2451 11.8882 85.2551 11.8782 86.4051 12.2782C85.2451 11.8882 84.2451 11.8882 83.5551 12.2882C82.9151 12.6582 82.5351 13.3481 82.5351 14.3281V23.7281L76.7451 20.3881L72.9951 22.5582V59.3482L101.095 75.5682L104.845 73.3981V71.0082L114.005 76.2981L116.565 74.8182V71.1882L134.805 81.7182C136.255 82.5582 137.575 82.6281 138.535 82.0781L142.405 79.8382L146.275 77.5982C147.235 77.0482 147.825 75.8682 147.825 74.1882V37.6381C147.825 34.2781 145.445 30.1681 142.545 28.4881V28.4781Z" fill="#F8F8F8"/>
<path opacity="0.06" d="M140.945 28.4781L93.9555 1.34815C92.5055 0.508145 91.1855 0.438144 90.2255 0.988144L86.3555 3.22815C85.3955 3.77815 84.8055 4.95815 84.8055 6.63815V10.6381L81.9555 12.2882C82.6455 11.8882 83.6555 11.8782 84.8055 12.2782C83.6455 11.8882 82.6455 11.8882 81.9555 12.2882C81.3155 12.6582 80.9355 13.3481 80.9355 14.3281V23.7281L75.1455 20.3881L71.3955 22.5582V59.3482L99.4955 75.5682L103.246 73.3981V71.0082L112.406 76.2981L114.966 74.8182V71.1882L133.206 81.7182C134.656 82.5582 135.976 82.6281 136.936 82.0781L140.806 79.8382L144.676 77.5982C145.636 77.0482 146.226 75.8682 146.226 74.1882V37.6381C146.226 34.2781 143.845 30.1681 140.945 28.4881V28.4781Z" fill="#F1F1F2"/>
<path opacity="0.09" d="M139.345 28.4781L92.3554 1.34815C90.9054 0.508145 89.5854 0.438144 88.6254 0.988144L84.7554 3.22815C83.7954 3.77815 83.2054 4.95815 83.2054 6.63815V10.6381L80.3554 12.2882C81.0454 11.8882 82.0554 11.8782 83.2054 12.2782C82.0454 11.8882 81.0454 11.8882 80.3554 12.2882C79.7154 12.6582 79.3354 13.3481 79.3354 14.3281V23.7281L73.5454 20.3881L69.7954 22.5582V59.3482L97.8954 75.5682L101.645 73.3981V71.0082L110.805 76.2981L113.365 74.8182V71.1882L131.605 81.7182C133.055 82.5582 134.375 82.6281 135.335 82.0781L139.205 79.8382L143.075 77.5982C144.035 77.0482 144.625 75.8682 144.625 74.1882V37.6381C144.625 34.2781 142.245 30.1681 139.345 28.4881V28.4781Z" fill="#EAEAEB"/>
<path opacity="0.12" d="M137.736 28.4781L90.7455 1.34815C89.2955 0.508145 87.9755 0.438144 87.0155 0.988144L83.1455 3.22815C82.1855 3.77815 81.5955 4.95815 81.5955 6.63815V10.6381L78.7455 12.2882C79.4355 11.8882 80.4455 11.8782 81.5955 12.2782C80.4355 11.8882 79.4355 11.8882 78.7455 12.2882C78.1055 12.6582 77.7255 13.3481 77.7255 14.3281V23.7281L71.9355 20.3881L68.1855 22.5582V59.3482L96.2855 75.5682L100.036 73.3981V71.0082L109.195 76.2981L111.755 74.8182V71.1882L129.996 81.7182C131.446 82.5582 132.766 82.6281 133.726 82.0781L137.596 79.8382L141.466 77.5982C142.426 77.0482 143.016 75.8682 143.016 74.1882V37.6381C143.016 34.2781 140.636 30.1681 137.736 28.4881V28.4781Z" fill="#E3E3E5"/>
<path opacity="0.15" d="M136.135 28.4781L89.1454 1.34815C87.6954 0.508145 86.3755 0.438144 85.4155 0.988144L81.5455 3.22815C80.5855 3.77815 79.9955 4.95815 79.9955 6.63815V10.6381L77.1454 12.2882C77.8354 11.8882 78.8455 11.8782 79.9955 12.2782C78.8355 11.8882 77.8354 11.8882 77.1454 12.2882C76.5054 12.6582 76.1254 13.3481 76.1254 14.3281V23.7281L70.3354 20.3881L66.5854 22.5582V59.3482L94.6855 75.5682L98.4355 73.3981V71.0082L107.595 76.2981L110.155 74.8182V71.1882L128.395 81.7182C129.845 82.5582 131.165 82.6281 132.125 82.0781L135.995 79.8382L139.865 77.5982C140.825 77.0482 141.415 75.8682 141.415 74.1882V37.6381C141.415 34.2781 139.035 30.1681 136.135 28.4881V28.4781Z" fill="#DCDCDE"/>
<path opacity="0.18" d="M134.525 28.4781L87.5351 1.34815C86.0851 0.508145 84.7651 0.438144 83.8051 0.988144L79.9351 3.22815C78.9751 3.77815 78.3851 4.95815 78.3851 6.63815V10.6381L75.5351 12.2882C76.2251 11.8882 77.2351 11.8782 78.3851 12.2782C77.2251 11.8882 76.2251 11.8882 75.5351 12.2882C74.8951 12.6582 74.5151 13.3481 74.5151 14.3281V23.7281L68.7251 20.3881L64.9751 22.5582V59.3482L93.0751 75.5682L96.8251 73.3981V71.0082L105.985 76.2981L108.545 74.8182V71.1882L126.785 81.7182C128.235 82.5582 129.555 82.6281 130.515 82.0781L134.385 79.8382L138.255 77.5982C139.215 77.0482 139.805 75.8682 139.805 74.1882V37.6381C139.805 34.2781 137.425 30.1681 134.525 28.4881V28.4781Z" fill="#D5D5D8"/>
<path opacity="0.21" d="M132.925 28.4781L85.9351 1.34815C84.4851 0.508145 83.165 0.438144 82.205 0.988144L78.335 3.22815C77.375 3.77815 76.785 4.95815 76.785 6.63815V10.6381L73.9351 12.2882C74.6251 11.8882 75.635 11.8782 76.785 12.2782C75.625 11.8882 74.6251 11.8882 73.9351 12.2882C73.2951 12.6582 72.915 13.3481 72.915 14.3281V23.7281L67.125 20.3881L63.375 22.5582V59.3482L91.475 75.5682L95.225 73.3981V71.0082L104.385 76.2981L106.945 74.8182V71.1882L125.185 81.7182C126.635 82.5582 127.955 82.6281 128.915 82.0781L132.785 79.8382L136.655 77.5982C137.615 77.0482 138.205 75.8682 138.205 74.1882V37.6381C138.205 34.2781 135.825 30.1681 132.925 28.4881V28.4781Z" fill="#CECED1"/>
<path opacity="0.24" d="M131.325 28.4781L84.3354 1.34815C82.8854 0.508145 81.5654 0.438144 80.6054 0.988144L76.7354 3.22815C75.7754 3.77815 75.1854 4.95815 75.1854 6.63815V10.6381L72.3354 12.2882C73.0254 11.8882 74.0354 11.8782 75.1854 12.2782C74.0254 11.8882 73.0254 11.8882 72.3354 12.2882C71.6954 12.6582 71.3154 13.3481 71.3154 14.3281V23.7281L65.5254 20.3881L61.7754 22.5582V59.3482L89.8754 75.5682L93.6254 73.3981V71.0082L102.785 76.2981L105.345 74.8182V71.1882L123.585 81.7182C125.035 82.5582 126.355 82.6281 127.315 82.0781L131.185 79.8382L135.055 77.5982C136.015 77.0482 136.605 75.8682 136.605 74.1882V37.6381C136.605 34.2781 134.225 30.1681 131.325 28.4881V28.4781Z" fill="#C7C7CB"/>
<path opacity="0.27" d="M129.715 28.4781L82.725 1.34815C81.275 0.508145 79.9551 0.438144 78.9951 0.988144L75.125 3.22815C74.165 3.77815 73.575 4.95815 73.575 6.63815V10.6381L70.725 12.2882C71.415 11.8882 72.425 11.8782 73.575 12.2782C72.415 11.8882 71.415 11.8882 70.725 12.2882C70.085 12.6582 69.705 13.3481 69.705 14.3281V23.7281L63.915 20.3881L60.165 22.5582V59.3482L88.265 75.5682L92.015 73.3981V71.0082L101.175 76.2981L103.735 74.8182V71.1882L121.975 81.7182C123.425 82.5582 124.745 82.6281 125.705 82.0781L129.575 79.8382L133.445 77.5982C134.405 77.0482 134.995 75.8682 134.995 74.1882V37.6381C134.995 34.2781 132.615 30.1681 129.715 28.4881V28.4781Z" fill="#C0C1C4"/>
<path opacity="0.3" d="M128.115 28.4781L81.1254 1.34815C79.6754 0.508145 78.3554 0.438144 77.3954 0.988144L73.5255 3.22815C72.5655 3.77815 71.9755 4.95815 71.9755 6.63815V10.6381L69.1254 12.2882C69.8154 11.8882 70.8255 11.8782 71.9755 12.2782C70.8155 11.8882 69.8154 11.8882 69.1254 12.2882C68.4854 12.6582 68.1055 13.3481 68.1055 14.3281V23.7281L62.3154 20.3881L58.5654 22.5582V59.3482L86.6655 75.5682L90.4155 73.3981V71.0082L99.5754 76.2981L102.135 74.8182V71.1882L120.375 81.7182C121.825 82.5582 123.145 82.6281 124.105 82.0781L127.975 79.8382L131.845 77.5982C132.805 77.0482 133.395 75.8682 133.395 74.1882V37.6381C133.395 34.2781 131.015 30.1681 128.115 28.4881V28.4781Z" fill="#B9BABE"/>
<path opacity="0.33" d="M126.505 28.4781L79.5151 1.34815C78.0651 0.508145 76.7451 0.438144 75.7851 0.988144L71.9151 3.22815C70.9551 3.77815 70.3651 4.95815 70.3651 6.63815V10.6381L67.5151 12.2882C68.2051 11.8882 69.2151 11.8782 70.3651 12.2782C69.2051 11.8882 68.2051 11.8882 67.5151 12.2882C66.8751 12.6582 66.4951 13.3481 66.4951 14.3281V23.7281L60.7051 20.3881L56.9551 22.5582V59.3482L85.0451 75.5682L88.7951 73.3981V71.0082L97.9551 76.2981L100.515 74.8182V71.1882L118.755 81.7182C120.205 82.5582 121.525 82.6281 122.485 82.0781L126.355 79.8382L130.225 77.5982C131.185 77.0482 131.775 75.8682 131.775 74.1882V37.6381C131.775 34.2781 129.395 30.1681 126.495 28.4881L126.505 28.4781Z" fill="#B2B3B7"/>
<path opacity="0.36" d="M124.905 28.4781L77.9155 1.34815C76.4655 0.508145 75.1455 0.438144 74.1855 0.988144L70.3154 3.22815C69.3554 3.77815 68.7654 4.95815 68.7654 6.63815V10.6381L65.9155 12.2882C66.6055 11.8882 67.6154 11.8782 68.7654 12.2782C67.6054 11.8882 66.6055 11.8882 65.9155 12.2882C65.2755 12.6582 64.8954 13.3481 64.8954 14.3281V23.7281L59.1055 20.3881L55.3555 22.5582V59.3482L83.4554 75.5682L87.2054 73.3981V71.0082L96.3655 76.2981L98.9255 74.8182V71.1882L117.165 81.7182C118.615 82.5582 119.935 82.6281 120.895 82.0781L124.765 79.8382L128.635 77.5982C129.595 77.0482 130.185 75.8682 130.185 74.1882V37.6381C130.185 34.2781 127.805 30.1681 124.905 28.4881V28.4781Z" fill="#ABACB0"/>
<path opacity="0.39" d="M123.305 28.4781L76.3154 1.34815C74.8654 0.508145 73.5454 0.438144 72.5854 0.988144L68.7154 3.22815C67.7554 3.77815 67.1654 4.95815 67.1654 6.63815V10.6381L64.3154 12.2882C65.0054 11.8882 66.0154 11.8782 67.1654 12.2782C66.0054 11.8882 65.0054 11.8882 64.3154 12.2882C63.6754 12.6582 63.2954 13.3481 63.2954 14.3281V23.7281L57.5054 20.3881L53.7554 22.5582V59.3482L81.8554 75.5682L85.6054 73.3981V71.0082L94.7654 76.2981L97.3254 74.8182V71.1882L115.565 81.7182C117.015 82.5582 118.335 82.6281 119.295 82.0781L123.165 79.8382L127.035 77.5982C127.995 77.0482 128.585 75.8682 128.585 74.1882V37.6381C128.585 34.2781 126.205 30.1681 123.305 28.4881V28.4781Z" fill="#A4A5AA"/>
<path opacity="0.42" d="M121.695 28.4781L74.7055 1.34815C73.2555 0.508145 71.9355 0.438144 70.9755 0.988144L67.1055 3.22815C66.1455 3.77815 65.5555 4.95815 65.5555 6.63815V10.6381L62.7055 12.2882C63.3955 11.8882 64.4055 11.8782 65.5555 12.2782C64.3955 11.8882 63.3955 11.8882 62.7055 12.2882C62.0655 12.6582 61.6855 13.3481 61.6855 14.3281V23.7281L55.8955 20.3881L52.1455 22.5582V59.3482L80.2455 75.5682L83.9955 73.3981V71.0082L93.1555 76.2981L95.7155 74.8182V71.1882L113.956 81.7182C115.406 82.5582 116.726 82.6281 117.686 82.0781L121.556 79.8382L125.426 77.5982C126.386 77.0482 126.976 75.8682 126.976 74.1882V37.6381C126.976 34.2781 124.595 30.1681 121.695 28.4881V28.4781Z" fill="#9D9EA3"/>
<path opacity="0.45" d="M120.095 28.4781L73.1054 1.34815C71.6554 0.508145 70.3354 0.438144 69.3754 0.988144L65.5054 3.22815C64.5454 3.77815 63.9554 4.95815 63.9554 6.63815V10.6381L61.1054 12.2882C61.7954 11.8882 62.8054 11.8782 63.9554 12.2782C62.7954 11.8882 61.7954 11.8882 61.1054 12.2882C60.4654 12.6582 60.0854 13.3481 60.0854 14.3281V23.7281L54.2954 20.3881L50.5454 22.5582V59.3482L78.6354 75.5682L82.3854 73.3981V71.0082L91.5454 76.2981L94.1054 74.8182V71.1882L112.345 81.7182C113.795 82.5582 115.115 82.6281 116.075 82.0781L119.945 79.8382L123.815 77.5982C124.775 77.0482 125.365 75.8682 125.365 74.1882V37.6381C125.365 34.2781 122.985 30.1681 120.085 28.4881L120.095 28.4781Z" fill="#96979D"/>
<path opacity="0.48" d="M118.486 28.4781L71.4955 1.34815C70.0455 0.508145 68.7255 0.438144 67.7655 0.988144L63.8955 3.22815C62.9355 3.77815 62.3455 4.95815 62.3455 6.63815V10.6381L59.4955 12.2882C60.1855 11.8882 61.1955 11.8782 62.3455 12.2782C61.1855 11.8882 60.1855 11.8882 59.4955 12.2882C58.8555 12.6582 58.4755 13.3481 58.4755 14.3281V23.7281L52.6855 20.3881L48.9355 22.5582V59.3482L77.0355 75.5682L80.7855 73.3981V71.0082L89.9455 76.2981L92.5055 74.8182V71.1882L110.746 81.7182C112.196 82.5582 113.516 82.6281 114.476 82.0781L118.346 79.8382L122.216 77.5982C123.176 77.0482 123.766 75.8682 123.766 74.1882V37.6381C123.766 34.2781 121.386 30.1681 118.486 28.4881V28.4781Z" fill="#8F9096"/>
<path opacity="0.52" d="M116.885 28.4781L69.8954 1.34815C68.4454 0.508145 67.1255 0.438144 66.1655 0.988144L62.2955 3.22815C61.3355 3.77815 60.7455 4.95815 60.7455 6.63815V10.6381L57.8954 12.2882C58.5854 11.8882 59.5955 11.8782 60.7455 12.2782C59.5855 11.8882 58.5854 11.8882 57.8954 12.2882C57.2554 12.6582 56.8754 13.3481 56.8754 14.3281V23.7281L51.0854 20.3881L47.3354 22.5582V59.3482L75.4355 75.5682L79.1855 73.3981V71.0082L88.3455 76.2981L90.9055 74.8182V71.1882L109.145 81.7182C110.595 82.5582 111.915 82.6281 112.875 82.0781L116.745 79.8382L120.615 77.5982C121.575 77.0482 122.165 75.8682 122.165 74.1882V37.6381C122.165 34.2781 119.785 30.1681 116.885 28.4881V28.4781Z" fill="#898990"/>
<path opacity="0.55" d="M115.285 28.4781L68.2953 1.34815C66.8453 0.508145 65.5253 0.438144 64.5653 0.988144L60.6953 3.22815C59.7353 3.77815 59.1453 4.95815 59.1453 6.63815V10.6381L56.2953 12.2882C56.9853 11.8882 57.9953 11.8782 59.1453 12.2782C57.9853 11.8882 56.9853 11.8882 56.2953 12.2882C55.6553 12.6582 55.2753 13.3481 55.2753 14.3281V23.7281L49.4854 20.3881L45.7354 22.5582V59.3482L73.8353 75.5682L77.5853 73.3981V71.0082L86.7454 76.2981L89.3054 74.8182V71.1882L107.545 81.7182C108.995 82.5582 110.315 82.6281 111.275 82.0781L115.145 79.8382L119.015 77.5982C119.975 77.0482 120.565 75.8682 120.565 74.1882V37.6381C120.565 34.2781 118.185 30.1681 115.285 28.4881V28.4781Z" fill="#828289"/>
<path opacity="0.58" d="M113.675 28.4781L66.6851 1.34815C65.2351 0.508145 63.915 0.438144 62.955 0.988144L59.085 3.22815C58.125 3.77815 57.535 4.95815 57.535 6.63815V10.6381L54.6851 12.2882C55.3751 11.8882 56.385 11.8782 57.535 12.2782C56.375 11.8882 55.3751 11.8882 54.6851 12.2882C54.0451 12.6582 53.665 13.3481 53.665 14.3281V23.7281L47.875 20.3881L44.125 22.5582V59.3482L72.225 75.5682L75.975 73.3981V71.0082L85.135 76.2981L87.695 74.8182V71.1882L105.935 81.7182C107.385 82.5582 108.705 82.6281 109.665 82.0781L113.535 79.8382L117.405 77.5982C118.365 77.0482 118.955 75.8682 118.955 74.1882V37.6381C118.955 34.2781 116.575 30.1681 113.675 28.4881V28.4781Z" fill="#7B7B83"/>
<path opacity="0.61" d="M112.075 28.4781L65.0854 1.34815C63.6354 0.508145 62.3154 0.438144 61.3554 0.988144L57.4854 3.22815C56.5254 3.77815 55.9354 4.95815 55.9354 6.63815V10.6381L53.0854 12.2882C53.7754 11.8882 54.7854 11.8782 55.9354 12.2782C54.7754 11.8882 53.7754 11.8882 53.0854 12.2882C52.4454 12.6582 52.0654 13.3481 52.0654 14.3281V23.7281L46.2754 20.3881L42.5254 22.5582V59.3482L70.6254 75.5682L74.3754 73.3981V71.0082L83.5354 76.2981L86.0954 74.8182V71.1882L104.335 81.7182C105.785 82.5582 107.105 82.6281 108.065 82.0781L111.935 79.8382L115.805 77.5982C116.765 77.0482 117.355 75.8682 117.355 74.1882V37.6381C117.355 34.2781 114.975 30.1681 112.075 28.4881V28.4781Z" fill="#74747C"/>
<path opacity="0.64" d="M110.465 28.4781L63.475 1.34815C62.025 0.508145 60.7051 0.438144 59.7451 0.988144L55.875 3.22815C54.915 3.77815 54.325 4.95815 54.325 6.63815V10.6381L51.475 12.2882C52.165 11.8882 53.175 11.8782 54.325 12.2782C53.165 11.8882 52.165 11.8882 51.475 12.2882C50.835 12.6582 50.455 13.3481 50.455 14.3281V23.7281L44.665 20.3881L40.915 22.5582V59.3482L69.015 75.5682L72.765 73.3981V71.0082L81.925 76.2981L84.485 74.8182V71.1882L102.725 81.7182C104.175 82.5582 105.495 82.6281 106.455 82.0781L110.325 79.8382L114.195 77.5982C115.155 77.0482 115.745 75.8682 115.745 74.1882V37.6381C115.745 34.2781 113.365 30.1681 110.465 28.4881V28.4781Z" fill="#6D6D76"/>
<path opacity="0.67" d="M108.865 28.4781L61.8754 1.34815C60.4254 0.508145 59.1054 0.438144 58.1454 0.988144L54.2755 3.22815C53.3155 3.77815 52.7255 4.95815 52.7255 6.63815V10.6381L49.8754 12.2882C50.5654 11.8882 51.5755 11.8782 52.7255 12.2782C51.5655 11.8882 50.5654 11.8882 49.8754 12.2882C49.2354 12.6582 48.8555 13.3481 48.8555 14.3281V23.7281L43.0654 20.3881L39.3154 22.5582V59.3482L67.4155 75.5682L71.1655 73.3981V71.0082L80.3254 76.2981L82.8854 74.8182V71.1882L101.125 81.7182C102.575 82.5582 103.895 82.6281 104.855 82.0781L108.725 79.8382L112.595 77.5982C113.555 77.0482 114.145 75.8682 114.145 74.1882V37.6381C114.145 34.2781 111.765 30.1681 108.865 28.4881V28.4781Z" fill="#66666F"/>
<path opacity="0.7" d="M107.265 28.4781L60.2753 1.34815C58.8253 0.508145 57.5053 0.438144 56.5453 0.988144L52.6754 3.22815C51.7154 3.77815 51.1253 4.95815 51.1253 6.63815V10.6381L48.2753 12.2882C48.9653 11.8882 49.9753 11.8782 51.1253 12.2782C49.9653 11.8882 48.9653 11.8882 48.2753 12.2882C47.6353 12.6582 47.2553 13.3481 47.2553 14.3281V23.7281L41.4653 20.3881L37.7153 22.5582V59.3482L65.8153 75.5682L69.5653 73.3981V71.0082L78.7253 76.2981L81.2853 74.8182V71.1882L99.5253 81.7182C100.975 82.5582 102.295 82.6281 103.255 82.0781L107.125 79.8382L110.995 77.5982C111.955 77.0482 112.545 75.8682 112.545 74.1882V37.6381C112.545 34.2781 110.165 30.1681 107.265 28.4881V28.4781Z" fill="#5F5F68"/>
<path opacity="0.73" d="M105.655 28.4781L58.6655 1.34815C57.2155 0.508145 55.8955 0.438144 54.9355 0.988144L51.0654 3.22815C50.1054 3.77815 49.5154 4.95815 49.5154 6.63815V10.6381L46.6655 12.2882C47.3555 11.8882 48.3654 11.8782 49.5154 12.2782C48.3554 11.8882 47.3555 11.8882 46.6655 12.2882C46.0255 12.6582 45.6454 13.3481 45.6454 14.3281V23.7281L39.8555 20.3881L36.1055 22.5582V59.3482L64.1954 75.5682L67.9454 73.3981V71.0082L77.1055 76.2981L79.6655 74.8182V71.1882L97.9055 81.7182C99.3555 82.5582 100.675 82.6281 101.635 82.0781L105.505 79.8382L109.375 77.5982C110.335 77.0482 110.925 75.8682 110.925 74.1882V37.6381C110.925 34.2781 108.545 30.1681 105.645 28.4881L105.655 28.4781Z" fill="#585862"/>
<path opacity="0.76" d="M104.055 28.4781L57.0654 1.34815C55.6154 0.508145 54.2954 0.438144 53.3354 0.988144L49.4654 3.22815C48.5054 3.77815 47.9154 4.95815 47.9154 6.63815V10.6381L45.0654 12.2882C45.7554 11.8882 46.7654 11.8782 47.9154 12.2782C46.7554 11.8882 45.7554 11.8882 45.0654 12.2882C44.4254 12.6582 44.0454 13.3481 44.0454 14.3281V23.7281L38.2554 20.3881L34.5054 22.5582V59.3482L62.6054 75.5682L66.3554 73.3981V71.0082L75.5154 76.2981L78.0754 74.8182V71.1882L96.3154 81.7182C97.7654 82.5582 99.0854 82.6281 100.045 82.0781L103.915 79.8382L107.785 77.5982C108.745 77.0482 109.335 75.8682 109.335 74.1882V37.6381C109.335 34.2781 106.955 30.1681 104.055 28.4881V28.4781Z" fill="#51525B"/>
<path opacity="0.79" d="M102.445 28.4781L55.4555 1.34815C54.0055 0.508145 52.6855 0.438144 51.7255 0.988144L47.8555 3.22815C46.8955 3.77815 46.3055 4.95815 46.3055 6.63815V10.6381L43.4555 12.2882C44.1455 11.8882 45.1555 11.8782 46.3055 12.2782C45.1455 11.8882 44.1455 11.8882 43.4555 12.2882C42.8155 12.6582 42.4355 13.3481 42.4355 14.3281V23.7281L36.6455 20.3881L32.8955 22.5582V59.3482L60.9955 75.5682L64.7455 73.3981V71.0082L73.9055 76.2981L76.4655 74.8182V71.1882L94.7055 81.7182C96.1555 82.5582 97.4755 82.6281 98.4355 82.0781L102.306 79.8382L106.176 77.5982C107.136 77.0482 107.726 75.8682 107.726 74.1882V37.6381C107.726 34.2781 105.345 30.1681 102.445 28.4881V28.4781Z" fill="#4A4B55"/>
<path opacity="0.82" d="M100.845 28.4781L53.8554 1.34815C52.4054 0.508145 51.0854 0.438144 50.1254 0.988144L46.2554 3.22815C45.2954 3.77815 44.7054 4.95815 44.7054 6.63815V10.6381L41.8554 12.2882C42.5454 11.8882 43.5554 11.8782 44.7054 12.2782C43.5454 11.8882 42.5454 11.8882 41.8554 12.2882C41.2154 12.6582 40.8354 13.3481 40.8354 14.3281V23.7281L35.0454 20.3881L31.2954 22.5582V59.3482L59.3954 75.5682L63.1454 73.3981V71.0082L72.3054 76.2981L74.8654 74.8182V71.1882L93.1054 81.7182C94.5554 82.5582 95.8754 82.6281 96.8354 82.0781L100.705 79.8382L104.575 77.5982C105.535 77.0482 106.125 75.8682 106.125 74.1882V37.6381C106.125 34.2781 103.745 30.1681 100.845 28.4881V28.4781Z" fill="#43444E"/>
<path opacity="0.85" d="M99.2454 28.4781L52.2553 1.34815C50.8053 0.508145 49.4853 0.438144 48.5253 0.988144L44.6553 3.22815C43.6953 3.77815 43.1053 4.95815 43.1053 6.63815V10.6381L40.2553 12.2882C40.9453 11.8882 41.9553 11.8782 43.1053 12.2782C41.9453 11.8882 40.9453 11.8882 40.2553 12.2882C39.6153 12.6582 39.2354 13.3481 39.2354 14.3281V23.7281L33.4453 20.3881L29.6953 22.5582V59.3482L57.7853 75.5682L61.5353 73.3981V71.0082L70.6953 76.2981L73.2553 74.8182V71.1882L91.4954 81.7182C92.9454 82.5582 94.2653 82.6281 95.2253 82.0781L99.0953 79.8382L102.965 77.5982C103.925 77.0482 104.515 75.8682 104.515 74.1882V37.6381C104.515 34.2781 102.135 30.1681 99.2354 28.4881L99.2454 28.4781Z" fill="#3C3D48"/>
<path opacity="0.88" d="M97.6354 28.4781L50.6454 1.34815C49.1954 0.508145 47.8755 0.438144 46.9155 0.988144L43.0455 3.22815C42.0855 3.77815 41.4955 4.95815 41.4955 6.63815V10.6381L38.6454 12.2882C39.3354 11.8882 40.3455 11.8782 41.4955 12.2782C40.3355 11.8882 39.3354 11.8882 38.6454 12.2882C38.0054 12.6582 37.6254 13.3481 37.6254 14.3281V23.7281L31.8354 20.3881L28.0854 22.5582V59.3482L56.1855 75.5682L59.9355 73.3981V71.0082L69.0955 76.2981L71.6555 74.8182V71.1882L89.8954 81.7182C91.3454 82.5582 92.6654 82.6281 93.6254 82.0781L97.4955 79.8382L101.365 77.5982C102.325 77.0482 102.915 75.8682 102.915 74.1882V37.6381C102.915 34.2781 100.535 30.1681 97.6354 28.4881V28.4781Z" fill="#353641"/>
<path opacity="0.91" d="M96.0353 28.4781L49.0453 1.34815C47.5953 0.508145 46.2753 0.438144 45.3153 0.988144L41.4453 3.22815C40.4853 3.77815 39.8953 4.95815 39.8953 6.63815V10.6381L37.0453 12.2882C37.7353 11.8882 38.7453 11.8782 39.8953 12.2782C38.7353 11.8882 37.7353 11.8882 37.0453 12.2882C36.4053 12.6582 36.0253 13.3481 36.0253 14.3281V23.7281L30.2354 20.3881L26.4854 22.5582V59.3482L54.5853 75.5682L58.3353 73.3981V71.0082L67.4954 76.2981L70.0554 74.8182V71.1882L88.2953 81.7182C89.7453 82.5582 91.0653 82.6281 92.0253 82.0781L95.8953 79.8382L99.7653 77.5982C100.725 77.0482 101.315 75.8682 101.315 74.1882V37.6381C101.315 34.2781 98.9353 30.1681 96.0353 28.4881V28.4781Z" fill="#2E2F3B"/>
<path opacity="0.94" d="M94.4353 28.4781L47.4453 1.34815C45.9953 0.508145 44.6753 0.438144 43.7153 0.988144L39.8453 3.22815C38.8853 3.77815 38.2953 4.95815 38.2953 6.63815V10.6381L35.4453 12.2882C36.1353 11.8882 37.1453 11.8782 38.2953 12.2782C37.1353 11.8882 36.1353 11.8882 35.4453 12.2882C34.8053 12.6582 34.4253 13.3481 34.4253 14.3281V23.7281L28.6353 20.3881L24.8853 22.5582V59.3482L52.9853 75.5682L56.7353 73.3981V71.0082L65.8953 76.2981L68.4553 74.8182V71.1882L86.6953 81.7182C88.1453 82.5582 89.4653 82.6281 90.4253 82.0781L94.2953 79.8382L98.1653 77.5982C99.1253 77.0482 99.7153 75.8682 99.7153 74.1882V37.6381C99.7153 34.2781 97.3353 30.1681 94.4353 28.4881V28.4781Z" fill="#272834"/>
<path opacity="0.97" d="M92.8254 28.4781L45.8354 1.34815C44.3854 0.508145 43.0654 0.438144 42.1054 0.988144L38.2354 3.22815C37.2754 3.77815 36.6854 4.95815 36.6854 6.63815V10.6381L33.8354 12.2882C34.5254 11.8882 35.5354 11.8782 36.6854 12.2782C35.5254 11.8882 34.5254 11.8882 33.8354 12.2882C33.1954 12.6582 32.8154 13.3481 32.8154 14.3281V23.7281L27.0254 20.3881L23.2754 22.5582V59.3482L51.3754 75.5682L55.1254 73.3981V71.0082L64.2854 76.2981L66.8454 74.8182V71.1882L85.0854 81.7182C86.5354 82.5582 87.8554 82.6281 88.8154 82.0781L92.6854 79.8382L96.5554 77.5982C97.5154 77.0482 98.1054 75.8682 98.1054 74.1882V37.6381C98.1054 34.2781 95.7254 30.1681 92.8254 28.4881V28.4781Z" fill="#20212E"/>
<path d="M91.2253 28.4781L44.2353 1.34815C42.7853 0.508145 41.4652 0.438144 40.5052 0.988144L36.6353 3.22815C35.6753 3.77815 35.0853 4.95815 35.0853 6.63815V10.6381L32.2353 12.2882C32.9253 11.8882 33.9353 11.8782 35.0853 12.2782C33.9253 11.8882 32.9253 11.8882 32.2353 12.2882C31.5953 12.6582 31.2153 13.3481 31.2153 14.3281V23.7281L25.4253 20.3881L21.6753 22.5582V59.3482L49.7753 75.5682L53.5253 73.3981V71.0082L62.6853 76.2981L65.2453 74.8182V71.1882L83.4853 81.7182C84.9353 82.5582 86.2553 82.6281 87.2153 82.0781L91.0853 79.8382L94.9553 77.5982C95.9153 77.0482 96.5052 75.8682 96.5052 74.1882V37.6381C96.5052 34.2781 94.1253 30.1681 91.2253 28.4881V28.4781Z" fill="#191A27"/>
</g>
</g>
<path d="M91.2253 28.4781L44.2353 1.34815C42.7853 0.508145 41.4652 0.438144 40.5052 0.988144L36.6353 3.22815C37.5953 2.67815 38.9153 2.74815 40.3653 3.58815L87.3553 30.7182C90.2553 32.3982 92.6353 36.5081 92.6353 39.8681V76.4181C92.6353 78.0981 92.0453 79.2781 91.0853 79.8281L94.9553 77.5882C95.9153 77.0381 96.5052 75.8581 96.5052 74.1781V37.6282C96.5052 34.2682 94.1253 30.1581 91.2253 28.4781Z" fill="#F8AB43"/>
<path d="M92.6349 76.4082C92.6349 78.0882 92.045 79.2682 91.085 79.8182C90.125 80.3682 88.805 80.2981 87.355 79.4581L40.365 52.3281C37.465 50.6481 35.085 46.5381 35.085 43.1781V6.62814C35.085 4.94814 35.6749 3.76816 36.6349 3.21816C37.5949 2.66816 38.915 2.73816 40.365 3.57816L87.355 30.7081C90.255 32.3881 92.6349 36.4981 92.6349 39.8581V76.4082Z" fill="#F89B1E"/>
<path d="M87.3553 46.7182L66.7253 34.8082C63.8253 33.1282 61.4453 29.7481 61.4453 27.2981C61.4453 24.8481 59.0753 21.4682 56.1653 19.7882L40.3654 10.6681C38.6154 9.65814 37.0653 9.48814 36.1053 10.0481L32.2354 12.2882C33.1954 11.7282 34.7553 11.9082 36.5053 12.9082L52.3054 22.0282C55.2154 23.7082 57.5853 27.0882 57.5853 29.5382C57.5853 31.9882 59.9654 35.3781 62.8654 37.0481L83.4954 48.9581C86.3954 50.6381 88.7753 54.7481 88.7753 58.1081V78.6481C88.7753 80.3281 88.1853 81.5081 87.2253 82.0582L91.0953 79.8182C92.0553 79.2682 92.6453 78.0882 92.6453 76.4082V55.8682C92.6453 52.5182 90.2654 48.3982 87.3654 46.7182H87.3553Z" fill="#FDC626"/>
<path d="M62.8551 37.0481C59.9551 35.3681 57.5751 31.9881 57.5751 29.5381C57.5751 27.0881 55.2051 23.7081 52.2951 22.0281L36.4951 12.9081C34.7451 11.8981 33.1951 11.7281 32.2251 12.2881C31.5851 12.6581 31.2051 13.3481 31.2051 14.3281V45.4281C31.2051 48.7781 33.5851 52.8981 36.4851 54.5781L52.2851 63.6981C55.1951 65.3781 59.9451 68.1181 62.8451 69.7981L83.4751 81.7081C84.9251 82.5481 86.2451 82.6181 87.2051 82.0681C88.1651 81.5181 88.7551 80.3381 88.7551 78.6581V58.1181C88.7551 54.7681 86.3751 50.6481 83.4751 48.9681L62.8451 37.0581L62.8551 37.0481Z" fill="#FDC00F"/>
<path d="M46.0651 63.7182L43.4951 65.1981L62.6751 76.2782L65.2451 74.7981L46.0651 63.7182Z" fill="#FAFAFA"/>
<path d="M65.2453 74.7981L62.6753 76.2782V51.1582L65.2453 49.6781V74.7981Z" fill="#D6D6D6"/>
<path d="M65.2451 49.6781L62.6751 51.1582L43.4951 40.0882L46.0651 38.6081L65.2451 49.6781Z" fill="#F0F0F0"/>
<path d="M43.4951 40.0882V65.1981L62.6751 76.2782V51.1582L43.4951 40.0882Z" fill="#F8F8F8"/>
<path d="M59.3352 55.2182L46.8452 48.0082V47.0082L59.3352 54.2182V55.2182Z" fill="#333333"/>
<path d="M59.3352 58.0481L46.8452 50.8382V49.8281L59.3352 57.0382V58.0481Z" fill="#333333"/>
<path d="M59.3352 60.8681L46.8452 53.6582V52.6582L59.3352 59.8681V60.8681Z" fill="#333333"/>
<path d="M59.3352 63.6981L46.8452 56.4881V55.4881L59.3352 62.6981V63.6981Z" fill="#333333"/>
<path d="M59.3352 66.5282L46.8452 59.3182V58.3082L59.3352 65.5181V66.5282Z" fill="#333333"/>
<path d="M59.3352 69.3482L46.8452 62.1381V61.1381L59.3352 68.3482V69.3482Z" fill="#333333"/>
<path d="M25.4253 57.1582L21.6753 59.3281L49.7653 75.5481L53.5153 73.3782L25.4253 57.1582Z" fill="#FAFAFA"/>
<path d="M53.5151 73.3782L49.7651 75.5481V38.7582L53.5151 36.5982V73.3782Z" fill="#D6D6D6"/>
<path d="M53.5153 36.5982L49.7653 38.7582L21.6753 22.5382L25.4253 20.3782L53.5153 36.5982Z" fill="#F0F0F0"/>
<path d="M21.6753 22.5382V59.3281L49.7653 75.5481V38.7582L21.6753 22.5382Z" fill="#F8F8F8"/>
<path d="M44.8652 44.7081L26.5752 34.1481V32.6781L44.8652 43.2381V44.7081Z" fill="#333333"/>
<path d="M44.8652 48.8482L26.5752 38.2882V36.8182L44.8652 47.3782V48.8482Z" fill="#333333"/>
<path d="M44.8652 52.9881L26.5752 42.4281V40.9581L44.8652 51.5181V52.9881Z" fill="#333333"/>
<path d="M44.8652 57.1282L26.5752 46.5682V45.0982L44.8652 55.6582V57.1282Z" fill="#333333"/>
<path d="M44.8652 61.2681L26.5752 50.7081V49.2381L44.8652 59.7981V61.2681Z" fill="#333333"/>
<path d="M44.8652 65.4082L26.5752 54.8482V53.3782L44.8652 63.9382V65.4082Z" fill="#333333"/>
<defs>
<linearGradient id="paint0_linear_3026_15663" x1="0.225098" y1="-246.132" x2="127.495" y2="-246.132" gradientUnits="userSpaceOnUse">
<stop stop-color="#545770"/>
<stop offset="0.1" stop-color="#50536A"/>
<stop offset="0.3" stop-color="#4E5168"/>
<stop offset="0.38" stop-color="#454860"/>
<stop offset="0.59" stop-color="#34374F"/>
<stop offset="0.74" stop-color="#2F324A"/>
<stop offset="1" stop-color="#20233D"/>
</linearGradient>
</defs>
</svg>
